# xmcd
#
# Track frame offsets: 
#        150
#        16267
#        32347
#        47150
#        64692
#        75201
#        92606
#        106857
#        126670
#        142682
#        162481
#        180040
#
# Disc length: 2749 seconds
#
# Revision: 0
# Processed by: cddbd v1.5.2PL0 Copyright (c) Steve Scherf et al.
# Submitted via: ExactAudioCopy v0.99pb3
#
DISCID=830abb0c
DTITLE=Various Artist - Mistletoe Melodies
DYEAR=2005
DGENRE=Christmas/Holiday
TTITLE0=Genuine Son - Christmas In Heaven
TTITLE1=A.D and The M.T's - California Christmas
TTITLE2=Kelli Rae - This Is Christmas
TTITLE3=Michael Jantz - I Saw Three Ships
TTITLE4=Christopher - Snow On The Desert
TTITLE5=Jose And Ernie - Christmas Shopping Song
TTITLE6=A.D and The M.T's - The 8 Days Of Hanukah
TTITLE7=Cats On Holiday - It's Christmas Day
TTITLE8=Donny Goldwood - Our Very First Christmas
TTITLE9=Trained Eye - T.V, Coffee And The New Year
TTITLE10=Alan Douglas - Have A Merry Cleveland Christmas
TTITLE11=Carlos Jones - Little Drummer Boy
EXTD=
EXTT0=
EXTT1=
EXTT2=
EXTT3=
EXTT4=
EXTT5=
EXTT6=
EXTT7=
EXTT8=
EXTT9=
EXTT10=
EXTT11=
PLAYORDER=
